<svg width="109" height="101" viewBox="0 0 109 101" fill="none" xmlns="http://www.w3.org/2000/svg">
<g clip-path="url(#clip0)">
<path d="M87.0572 100.202H2.94115C1.00546 100.202 -0.402142 98.5122 0.103392 96.7932L19.2085 48.6428C19.5543 47.4646 20.7175 46.6457 22.0462 46.6457H106.162C108.098 46.6457 109 48.3457 109 50.0543L89.895 98.2047C89.5492 99.3829 88.3859 100.202 87.0572 100.202Z" fill="#EFCE4A"/>
<path d="M94.4692 31.0971H90.2069V46.6457H97.7242V34.0893C97.7242 32.436 96.2658 31.0971 94.4692 31.0971Z" fill="#EBBA16"/>
<path d="M7.51724 19.0038H3.25497C1.45834 19.0038 0 20.3427 0 21.996V95.8137C0.129672 95.8171 0.259345 95.824 0.385259 95.8309L7.51724 77.9535V19.0038Z" fill="#EBBA16"/>
<path d="M19.2084 48.6428C19.5542 47.4646 20.7175 46.6457 22.0462 46.6457H25.8048H90.2069V25.9143V0H62.0172H18.7931V49.688L19.2084 48.6428Z" fill="#F4EFDC"/>
<path d="M31.9483 27.6419H77.0517C78.0891 27.6419 78.931 26.8696 78.931 25.9143C78.931 24.9589 78.0891 24.1866 77.0517 24.1866H31.9483C30.9109 24.1866 30.069 24.9589 30.069 25.9143C30.069 26.8696 30.9109 27.6419 31.9483 27.6419Z" fill="#CEC9AE"/>
<path d="M31.9483 15.5486H50.7414C51.7788 15.5486 52.6207 14.7763 52.6207 13.8209C52.6207 12.8656 51.7788 12.0933 50.7414 12.0933H31.9483C30.9109 12.0933 30.069 12.8656 30.069 13.8209C30.069 14.7763 30.9109 15.5486 31.9483 15.5486Z" fill="#CEC9AE"/>
<path d="M77.0517 36.28H31.9483C30.9109 36.28 30.069 37.0522 30.069 38.0076C30.069 38.963 30.9109 39.7352 31.9483 39.7352H77.0517C78.0891 39.7352 78.931 38.963 78.931 38.0076C78.931 37.0522 78.0891 36.28 77.0517 36.28Z" fill="#CEC9AE"/>
<path d="M18.7931 49.688V3.45526H13.1552V63.8977L18.7931 49.688Z" fill="#CEC9AE"/>
<path d="M13.1551 63.8976V6.91046H7.51721V78.1073L13.1551 63.8976Z" fill="#D1BF86"/>
</g>
<defs>
<clipPath id="clip0">
<rect width="109" height="100.202" fill="white"/>
</clipPath>
</defs>
</svg>
