<svg width="200" height="180" viewBox="0 0 200 180" fill="none" xmlns="http://www.w3.org/2000/svg">
<g clip-path="url(#clip0)">
<path d="M177.345 67.2914L177.542 66.6649L197.486 3.0677L197.487 3.06557C197.5 3.02355 197.501 2.98729 197.491 2.94946C197.481 2.91024 197.455 2.84625 197.383 2.77184L197.376 2.7646L197.369 2.7573C197.222 2.60294 196.911 2.4601 196.534 2.50944L196.526 2.51051L196.518 2.51152L100.307 14.4548L99.9992 14.493L99.6912 14.4548L3.48121 2.51152L3.48107 2.51151C3.17389 2.47336 2.9073 2.555 2.72881 2.67667C2.55297 2.79652 2.51131 2.91377 2.50248 2.97072L177.345 67.2914ZM177.345 67.2914L177.482 67.9335M177.345 67.2914L177.482 67.9335M177.482 67.9335L197.489 161.925L197.495 161.955L197.496 161.96C197.496 161.962 197.497 161.964 197.497 161.966C197.505 162.015 197.502 162.085 197.422 162.187C197.334 162.299 197.15 162.439 196.849 162.486L196.848 162.486L100.183 177.486L100.18 177.486C100.121 177.495 100.061 177.5 99.9996 177.5H99.9948C99.9352 177.5 99.875 177.495 99.8158 177.485L99.8105 177.485L6.47795 162.485L6.47227 162.484C6.45625 162.481 6.44677 162.48 6.44193 162.479L6.43536 162.477C6.14052 162.419 5.9719 162.275 5.89568 162.167C5.82519 162.067 5.82605 162.001 5.83926 161.947L25.6628 81.6675L25.8263 81.0052L25.6308 80.3516L2.50934 3.06401L2.50924 3.06368M177.482 67.9335L2.50924 3.06368M2.50924 3.06368C2.49963 3.03156 2.4978 3.00157 2.50243 2.97106L2.50924 3.06368ZM96.2692 175.885L99.1659 176.351V173.417V17.6145V15.4057L96.9739 15.1336L8.16631 4.10906L4.36549 3.63722L5.46321 7.30654L27.4895 80.9331C27.4896 80.9335 27.4898 80.934 27.4899 80.9344C27.5023 80.9769 27.5031 81.0167 27.4933 81.0578C27.4932 81.0584 27.4931 81.059 27.4929 81.0596L8.24704 158.998L7.59593 161.635L10.2775 162.066L96.2692 175.885ZM100.833 173.437V176.355L103.716 175.908L193.136 162.033L195.748 161.628L195.198 159.042L175.676 67.326L175.676 67.3241C175.669 67.2929 175.67 67.2615 175.682 67.225L175.685 67.2145L194.458 7.34703L195.62 3.63939L191.764 4.11805L103.025 15.1336L100.833 15.4057V17.6145V173.437Z" fill="#0ECFAC" stroke="#0ECFAC" stroke-width="5"/>
<path d="M83.52 29.5171L83.5209 29.5173C83.7827 29.5588 83.9603 29.6737 84.0582 29.7786C84.1529 29.8802 84.1663 29.9586 84.1663 30.0012L84.1663 44.9979C84.1663 44.9982 84.1663 44.9986 84.1663 44.9989C84.166 45.0473 84.1489 45.1439 84.0165 45.2631C83.8789 45.3869 83.6433 45.5007 83.3305 45.501L83.3282 45.501C83.2718 45.5011 83.2156 45.4966 83.1597 45.4874L83.1526 45.4862L83.1456 45.4851L26.4794 36.4852L26.4785 36.485C26.2167 36.4435 26.0394 36.3287 25.9416 36.2238C25.847 36.1224 25.8335 36.044 25.8335 36.0011L25.8335 21.0012L25.8335 20.9989C25.8335 20.958 25.8516 20.8347 26.0286 20.7015L26.0361 20.6959L26.0435 20.6902C26.2234 20.5526 26.5199 20.4624 26.8408 20.5151L26.8408 20.5151L26.8538 20.5172L83.52 29.5171ZM79.6072 43.893L82.4993 44.3522V41.4239V32.5178V30.3834L80.3913 30.0487L30.3918 22.1093L27.4997 21.65V24.5783V33.4845V35.6189L29.6076 35.9536L79.6072 43.893Z" fill="#0ECFAC" stroke="#0ECFAC" stroke-width="5"/>
<path d="M163.332 83.5015L163.332 83.5015C163.645 83.5014 163.879 83.6148 164.016 83.7381C164.149 83.8576 164.165 83.954 164.165 84.0014V98.9991C164.165 99.0425 164.152 99.1196 164.061 99.2193C163.967 99.3221 163.797 99.4364 163.542 99.4825C163.542 99.4825 163.542 99.4826 163.542 99.4826L113.549 108.481C113.549 108.481 113.548 108.481 113.547 108.482C113.477 108.494 113.404 108.501 113.328 108.501C113.018 108.5 112.784 108.387 112.648 108.264C112.515 108.145 112.499 108.048 112.499 108.001V93.0031C112.499 92.9596 112.513 92.8827 112.603 92.7834C112.697 92.6806 112.868 92.5662 113.122 92.5202C113.122 92.5201 113.122 92.5201 113.123 92.5201L163.121 83.5204L163.123 83.52C163.19 83.5079 163.26 83.5015 163.332 83.5015ZM160.441 99.0033L162.499 98.6331V96.5428V87.6603V84.6702L159.556 85.1998L116.223 92.9986L114.166 93.3689V95.4591V104.342V107.332L117.108 106.802L160.441 99.0033Z" fill="#0ECFAC" stroke="#0ECFAC" stroke-width="5"/>
<path d="M86.8534 92.5166L86.8543 92.5168C87.1162 92.5583 87.2937 92.6732 87.3916 92.7782C87.4863 92.8797 87.4997 92.9581 87.4997 93.0007L87.4997 107.997C87.4997 107.998 87.4997 107.998 87.4997 107.998C87.4995 108.046 87.4827 108.143 87.3499 108.263C87.2123 108.386 86.9767 108.5 86.6639 108.501L86.6616 108.501C86.6052 108.501 86.549 108.496 86.4931 108.487L86.4861 108.486L86.479 108.485L63.1459 104.779L63.145 104.778C62.8832 104.737 62.7059 104.622 62.6081 104.517C62.5135 104.416 62.5 104.337 62.5 104.294L62.5 89.2946L62.5 89.2922C62.5 89.2515 62.5183 89.128 62.6951 88.9948L62.7044 88.9879L62.7135 88.9808C62.8911 88.8445 63.1847 88.7549 63.5028 88.8077L63.5116 88.8092L63.5203 88.8105L86.8534 92.5166ZM82.9408 106.893L85.8327 107.352V104.423V95.5173V93.3828L83.7247 93.0482L67.0581 90.4026L64.1662 89.9436V92.8717V101.778V103.912L66.2743 104.247L82.9408 106.893Z" fill="#0ECFAC" stroke="#0ECFAC" stroke-width="5"/>
<path d="M169.996 22.7966L169.997 22.7966C170.31 22.7964 170.545 22.9099 170.683 23.0335C170.815 23.1527 170.832 23.2491 170.832 23.2969C170.832 23.2971 170.832 23.2974 170.832 23.2976L170.832 38.295V38.2957C170.832 38.338 170.819 38.4162 170.724 38.5176C170.627 38.6225 170.449 38.7374 170.187 38.7789L170.186 38.779L146.853 42.4851L146.846 42.4862L146.839 42.4874C146.783 42.4966 146.727 42.5012 146.671 42.501L146.668 42.501C146.356 42.5007 146.12 42.3869 145.982 42.2631C145.85 42.1436 145.833 42.0468 145.833 41.9986L145.833 27.0012L145.833 27.0005C145.833 26.9581 145.846 26.88 145.94 26.7786C146.038 26.6737 146.216 26.5588 146.478 26.5173L146.478 26.5171L169.808 22.8115C169.809 22.8115 169.809 22.8114 169.81 22.8114C169.873 22.8014 169.935 22.7966 169.996 22.7966ZM167.057 38.2475L169.165 37.9128V35.7784V26.8722V23.9441L166.273 24.4031L149.607 27.0487L147.499 27.3833V29.5178V38.424V41.3521L150.391 40.8931L167.057 38.2475Z" fill="#0ECFAC" stroke="#0ECFAC" stroke-width="5"/>
<path d="M84.103 60.1085L32.373 51.892L32.5689 50.8928L84.299 59.1093L84.103 60.1085Z" fill="#0ECFAC" stroke="#0ECFAC" stroke-width="5"/>
<path d="M87.4272 78.1076L65.6972 74.6561L65.8932 73.657L87.6231 77.1085L87.4272 78.1076Z" fill="#0ECFAC" stroke="#0ECFAC" stroke-width="5"/>
<path d="M52.9944 72.109L39.041 69.8927L39.2369 68.8936L53.1903 71.1098L52.9944 72.109Z" fill="#0ECFAC" stroke="#0ECFAC" stroke-width="5"/>
<path d="M84.0971 159.1L62.3672 155.648L62.5631 154.649L84.2931 158.101L84.0971 159.1Z" fill="#0ECFAC" stroke="#0ECFAC" stroke-width="5"/>
<path d="M49.6643 153.112L35.7109 150.896L35.9068 149.897L49.8602 152.113L49.6643 153.112Z" fill="#0ECFAC" stroke="#0ECFAC" stroke-width="5"/>
<path d="M84.1045 141.116L32.3745 132.899L32.5704 131.9L84.3004 140.117L84.1045 141.116Z" fill="#0ECFAC" stroke="#0ECFAC" stroke-width="5"/>
<path d="M50.7535 96.0545L39.009 93.9384L39.232 92.9359L50.9765 95.0521L50.7535 96.0545Z" fill="#0ECFAC" stroke="#0ECFAC" stroke-width="5"/>
<path d="M84.0999 123.087L35.6953 114.919L35.9036 113.92L84.3081 122.088L84.0999 123.087Z" fill="#0ECFAC" stroke="#0ECFAC" stroke-width="5"/>
<path d="M115.905 60.1089L115.709 59.1097L167.439 50.8885L167.635 51.8877L115.905 60.1089Z" fill="#0ECFAC" stroke="#0ECFAC" stroke-width="5"/>
<path d="M112.57 78.1106L112.374 77.1114L134.104 73.658L134.3 74.6572L112.57 78.1106Z" fill="#0ECFAC" stroke="#0ECFAC" stroke-width="5"/>
<path d="M147.018 72.1045L146.822 71.1053L160.776 68.8891L160.972 69.8882L147.018 72.1045Z" fill="#0ECFAC" stroke="#0ECFAC" stroke-width="5"/>
<path d="M115.901 159.1L115.705 158.101L137.435 154.647L137.631 155.646L115.901 159.1Z" fill="#0ECFAC" stroke="#0ECFAC" stroke-width="5"/>
<path d="M150.352 153.112L150.156 152.113L164.109 149.896L164.305 150.895L150.352 153.112Z" fill="#0ECFAC" stroke="#0ECFAC" stroke-width="5"/>
<path d="M115.905 141.113L115.709 140.114L167.439 131.892L167.635 132.892L115.905 141.113Z" fill="#0ECFAC" stroke="#0ECFAC" stroke-width="5"/>
<path d="M122.565 39.0582L122.342 38.0558L134.087 35.9396L134.31 36.9421L122.565 39.0582Z" fill="#0ECFAC" stroke="#0ECFAC" stroke-width="5"/>
<path d="M115.899 123.095L115.691 122.096L164.091 113.914L164.299 114.913L115.899 123.095Z" fill="#0ECFAC" stroke="#0ECFAC" stroke-width="5"/>
</g>
<defs>
<clipPath id="clip0">
<rect width="200" height="180" fill="white"/>
</clipPath>
</defs>
</svg>
