<svg width="80" height="78" viewBox="0 0 80 78" fill="none" xmlns="http://www.w3.org/2000/svg">
<g clip-path="url(#clip0)">
<mask id="path-2-inside-1" fill="white">
<path d="M79.9804 69.2984C79.9789 69.2904 79.9774 69.2825 79.9759 69.2744L71.9708 28.9281L79.9486 1.63729C80.0711 1.21954 79.9667 0.770259 79.6712 0.442951C79.3779 0.112747 78.9297 -0.0496198 78.4837 0.0129774L39.9996 5.13806L1.51555 0.0129774C0.786061 -0.0842172 0.113066 0.407871 0.0124007 1.11221C-0.0119325 1.28262 -0.000765894 1.45609 0.0455671 1.62216L9.29416 34.7877L1.36456 69.2381C1.20522 69.9326 1.65939 70.6204 2.37871 70.774C2.39655 70.7779 2.41438 70.7813 2.43238 70.7843L39.7654 77.2211C39.8427 77.2346 39.9212 77.2413 39.9997 77.2412C40.0757 77.2412 40.1514 77.2349 40.2262 77.2223L78.8926 70.7856C79.6182 70.6649 80.1054 69.999 79.9804 69.2984ZM38.6662 74.4163L4.26953 68.4863L11.9686 35.038C12.0146 34.8354 12.0098 34.6249 11.9543 34.4244L3.14321 2.82776L38.6662 7.55859V74.4163ZM41.3329 74.4251V7.55859L76.8288 2.83162L69.3197 28.5219C69.2625 28.7145 69.2532 28.9174 69.2923 29.1141L77.1009 68.4711L41.3329 74.4251Z"/>
</mask>
<path d="M79.9804 69.2984C79.9789 69.2904 79.9774 69.2825 79.9759 69.2744L71.9708 28.9281L79.9486 1.63729C80.0711 1.21954 79.9667 0.770259 79.6712 0.442951C79.3779 0.112747 78.9297 -0.0496198 78.4837 0.0129774L39.9996 5.13806L1.51555 0.0129774C0.786061 -0.0842172 0.113066 0.407871 0.0124007 1.11221C-0.0119325 1.28262 -0.000765894 1.45609 0.0455671 1.62216L9.29416 34.7877L1.36456 69.2381C1.20522 69.9326 1.65939 70.6204 2.37871 70.774C2.39655 70.7779 2.41438 70.7813 2.43238 70.7843L39.7654 77.2211C39.8427 77.2346 39.9212 77.2413 39.9997 77.2412C40.0757 77.2412 40.1514 77.2349 40.2262 77.2223L78.8926 70.7856C79.6182 70.6649 80.1054 69.999 79.9804 69.2984ZM38.6662 74.4163L4.26953 68.4863L11.9686 35.038C12.0146 34.8354 12.0098 34.6249 11.9543 34.4244L3.14321 2.82776L38.6662 7.55859V74.4163ZM41.3329 74.4251V7.55859L76.8288 2.83162L69.3197 28.5219C69.2625 28.7145 69.2532 28.9174 69.2923 29.1141L77.1009 68.4711L41.3329 74.4251Z" fill="white"/>
<path d="M79.9804 69.2984L84.9027 68.4202L84.8993 68.4011L84.8957 68.3821L79.9804 69.2984ZM79.9759 69.2744L84.8912 68.3581L84.8859 68.3297L84.8803 68.3014L79.9759 69.2744ZM71.9708 28.9281L67.1716 27.5251L66.8281 28.7003L67.0664 29.9011L71.9708 28.9281ZM79.9486 1.63729L75.1506 0.230332L75.1494 0.234375L79.9486 1.63729ZM79.6712 0.442951L75.9332 3.76361L75.9465 3.77863L75.96 3.79354L79.6712 0.442951ZM78.4837 0.0129774L79.1438 4.96922L79.1613 4.96689L79.1787 4.96445L78.4837 0.0129774ZM39.9996 5.13806L39.3395 10.0943L39.9996 10.1822L40.6596 10.0943L39.9996 5.13806ZM1.51555 0.0129774L0.855212 4.96918L0.85551 4.96922L1.51555 0.0129774ZM0.0124007 1.11221L-4.9373 0.404786L-4.93739 0.40543L0.0124007 1.11221ZM0.0455671 1.62216L4.86181 0.279097L4.86163 0.278474L0.0455671 1.62216ZM9.29416 34.7877L14.1667 35.9093L14.452 34.6698L14.1104 33.4447L9.29416 34.7877ZM1.36456 69.2381L-3.50804 68.1165L-3.50885 68.12L1.36456 69.2381ZM2.37871 70.774L3.43701 65.8873L3.42334 65.8844L2.37871 70.774ZM2.43238 70.7843L3.28192 65.857L3.26968 65.8549L2.43238 70.7843ZM39.7654 77.2211L40.6263 72.2957L40.6149 72.2938L39.7654 77.2211ZM39.9997 77.2412L39.9997 72.2412L39.9895 72.2412L39.9997 77.2412ZM40.2262 77.2223L39.4052 72.2902L39.3991 72.2912L40.2262 77.2223ZM78.8926 70.7856L78.0723 65.8534L78.0715 65.8535L78.8926 70.7856ZM38.6662 74.4163L37.8168 79.3436L43.6662 80.352V74.4163H38.6662ZM4.26953 68.4863L-0.603053 67.3647L-1.78868 72.5156L3.42006 73.4136L4.26953 68.4863ZM11.9686 35.038L16.8412 36.1595L16.8429 36.1523L16.8445 36.145L11.9686 35.038ZM11.9543 34.4244L16.7731 33.0905L16.7705 33.0813L11.9543 34.4244ZM3.14321 2.82776L3.80326 -2.12848L-3.70865 -3.12889L-1.67303 4.17083L3.14321 2.82776ZM38.6662 7.55859H43.6662V3.18033L39.3263 2.60235L38.6662 7.55859ZM41.3329 74.4251H36.3329V80.3262L42.1539 79.3572L41.3329 74.4251ZM41.3329 7.55859L40.6729 2.60235L36.3329 3.1803V7.55859H41.3329ZM76.8288 2.83162L81.6279 4.23439L83.783 -3.13862L76.1687 -2.12462L76.8288 2.83162ZM69.3197 28.5219L74.113 29.9445L74.1159 29.9346L74.1188 29.9247L69.3197 28.5219ZM69.2923 29.1141L74.1967 28.141L74.196 28.1374L69.2923 29.1141ZM77.1009 68.4711L77.9219 73.4033L83.0089 72.5565L82.0053 67.4981L77.1009 68.4711ZM84.8957 68.3821C84.8939 68.3725 84.8923 68.3638 84.8917 68.3606C84.8908 68.3559 84.8909 68.3566 84.8912 68.3581L75.0606 70.1908C75.0624 70.2003 75.064 70.209 75.0646 70.2122C75.0655 70.217 75.0654 70.2162 75.0651 70.2148L84.8957 68.3821ZM84.8803 68.3014L76.8752 27.955L67.0664 29.9011L75.0715 70.2475L84.8803 68.3014ZM76.7699 30.331L84.7477 3.0402L75.1494 0.234375L67.1716 27.5251L76.7699 30.331ZM84.7465 3.04424C85.3656 0.933221 84.8236 -1.31143 83.3825 -2.90764L75.96 3.79354C75.1099 2.85194 74.7766 1.50586 75.1506 0.230332L84.7465 3.04424ZM83.4093 -2.8777C81.9791 -4.4877 79.8542 -5.22838 77.7888 -4.93849L79.1787 4.96445C78.0053 5.12914 76.7767 4.7132 75.9332 3.76361L83.4093 -2.8777ZM77.8237 -4.94327L39.3395 0.181819L40.6596 10.0943L79.1438 4.96922L77.8237 -4.94327ZM40.6596 0.181819L2.1756 -4.94327L0.85551 4.96922L39.3395 10.0943L40.6596 0.181819ZM2.1759 -4.94323C-1.11493 -5.38168 -4.42645 -3.16951 -4.9373 0.404786L4.9621 1.81963C4.65259 3.98525 2.68705 5.21325 0.855212 4.96918L2.1759 -4.94323ZM-4.93739 0.40543C-5.05926 1.25888 -5.00352 2.13064 -4.7705 2.96584L4.86163 0.278474C5.00199 0.781539 5.03539 1.30637 4.96219 1.81899L-4.93739 0.40543ZM-4.77067 2.96522L4.47791 36.1308L14.1104 33.4447L4.86181 0.279097L-4.77067 2.96522ZM4.42157 33.6662L-3.50803 68.1165L6.23715 70.3596L14.1667 35.9093L4.42157 33.6662ZM-3.50885 68.12C-4.3263 71.6833 -1.96303 74.9593 1.33409 75.6637L3.42334 65.8844C5.28181 66.2814 6.73674 68.1819 6.23796 70.3561L-3.50885 68.12ZM1.32042 75.6607C1.42263 75.6829 1.51515 75.7001 1.59508 75.7137L3.26968 65.8549C3.31361 65.8624 3.37046 65.8729 3.437 65.8873L1.32042 75.6607ZM1.58285 75.7116L38.9159 82.1484L40.6149 72.2938L3.28192 65.857L1.58285 75.7116ZM38.9045 82.1464C39.2682 82.21 39.6382 82.2419 40.01 82.2412L39.9895 72.2412C40.2043 72.2407 40.4173 72.2592 40.6263 72.2957L38.9045 82.1464ZM39.9997 82.2412C40.3515 82.2412 40.7039 82.2121 41.0533 82.1535L39.3991 72.2912C39.5989 72.2577 39.7999 72.2412 39.9997 72.2412V82.2412ZM41.0473 82.1545L79.7136 75.7177L78.0715 65.8535L39.4052 72.2902L41.0473 82.1545ZM79.7129 75.7179C83.0264 75.1668 85.5445 72.0179 84.9027 68.4202L75.0581 70.1766C74.6663 67.9802 76.2101 66.1631 78.0723 65.8534L79.7129 75.7179ZM39.5157 69.4889L5.119 63.5589L3.42006 73.4136L37.8168 79.3436L39.5157 69.4889ZM9.14212 69.6078L16.8412 36.1595L7.09605 33.9164L-0.603053 67.3647L9.14212 69.6078ZM16.8445 36.145C17.0733 35.1374 17.0493 34.0883 16.7731 33.0905L7.1355 35.7582C6.97031 35.1614 6.95596 34.5333 7.09274 33.9309L16.8445 36.145ZM16.7705 33.0813L7.95945 1.48469L-1.67303 4.17083L7.13806 35.7674L16.7705 33.0813ZM2.48315 7.784L38.0062 12.5148L39.3263 2.60235L3.80326 -2.12848L2.48315 7.784ZM33.6662 7.55859V74.4163H43.6662V7.55859H33.6662ZM46.3329 74.4251V7.55859H36.3329V74.4251H46.3329ZM41.9929 12.5148L77.4888 7.78787L76.1687 -2.12462L40.6729 2.60235L41.9929 12.5148ZM72.0296 1.42885L64.5205 27.1191L74.1188 29.9247L81.6279 4.23439L72.0296 1.42885ZM64.5263 27.0993C64.2382 28.07 64.1906 29.0964 64.3886 30.0908L74.196 28.1374C74.3157 28.7385 74.2867 29.3591 74.113 29.9445L64.5263 27.0993ZM64.3879 30.0871L72.1965 69.4442L82.0053 67.4981L74.1967 28.141L64.3879 30.0871ZM76.2799 63.539L40.5119 69.493L42.1539 79.3572L77.9219 73.4033L76.2799 63.539Z" fill="white" mask="url(#path-2-inside-1)"/>
<mask id="path-4-inside-2" fill="white">
<path d="M33.5649 11.6068L10.8984 7.74478C10.5103 7.67639 10.1106 7.7797 9.80993 8.02639C9.50777 8.2705 9.3331 8.63144 9.33344 9.01201V15.4487C9.33344 16.0733 9.79793 16.6077 10.4349 16.716L33.1014 20.578C33.1779 20.5915 33.2554 20.5983 33.3332 20.5981C34.0692 20.5973 34.6657 20.0214 34.6666 19.3108V12.874C34.6666 12.2495 34.2019 11.7151 33.5649 11.6068ZM31.9997 17.7758L11.9999 14.3688V10.547L31.9997 13.954V17.7758Z"/>
</mask>
<path d="M33.5649 11.6068L10.8984 7.74478C10.5103 7.67639 10.1106 7.7797 9.80993 8.02639C9.50777 8.2705 9.3331 8.63144 9.33344 9.01201V15.4487C9.33344 16.0733 9.79793 16.6077 10.4349 16.716L33.1014 20.578C33.1779 20.5915 33.2554 20.5983 33.3332 20.5981C34.0692 20.5973 34.6657 20.0214 34.6666 19.3108V12.874C34.6666 12.2495 34.2019 11.7151 33.5649 11.6068ZM31.9997 17.7758L11.9999 14.3688V10.547L31.9997 13.954V17.7758Z" fill="white"/>
<path d="M33.5649 11.6068L32.7251 16.5358L32.7269 16.5361L33.5649 11.6068ZM10.8984 7.74478L10.0308 12.6689L10.0447 12.6714L10.0586 12.6737L10.8984 7.74478ZM9.80993 8.02639L12.9521 11.9157L12.9668 11.9038L12.9814 11.8918L9.80993 8.02639ZM9.33344 9.01201L14.3334 9.01201L14.3334 9.00763L9.33344 9.01201ZM10.4349 16.716L11.2748 11.787L11.273 11.7867L10.4349 16.716ZM33.1014 20.578L33.9714 15.6543L33.9563 15.6516L33.9412 15.649L33.1014 20.578ZM33.3332 20.5981L33.3278 15.5981L33.3229 15.5981L33.3332 20.5981ZM34.6666 19.3108L39.6666 19.3166V19.3108H34.6666ZM34.6666 12.874H29.6666H34.6666ZM31.9997 17.7758L31.1601 22.7048L36.9997 23.6996V17.7758H31.9997ZM11.9999 14.3688H6.99991V18.5891L11.1603 19.2978L11.9999 14.3688ZM11.9999 10.547L12.8396 5.61802L6.99991 4.62323V10.547H11.9999ZM31.9997 13.954H36.9997V9.73369L32.8394 9.02498L31.9997 13.954ZM34.4047 6.67785L11.7382 2.81582L10.0586 12.6737L32.7251 16.5358L34.4047 6.67785ZM11.766 2.82063C9.96504 2.50332 8.08495 2.97412 6.63843 4.16095L12.9814 11.8918C12.1362 12.5853 11.0555 12.8495 10.0308 12.6689L11.766 2.82063ZM6.6678 4.13704C5.21964 5.30698 4.33175 7.08537 4.33344 9.01639L14.3334 9.00763C14.3345 10.1775 13.7959 11.234 12.9521 11.9157L6.6678 4.13704ZM4.33344 9.01201V15.4487H14.3334V9.01201H4.33344ZM4.33344 15.4487C4.33344 18.6354 6.68073 21.1495 9.59688 21.6452L11.273 11.7867C12.9151 12.0659 14.3334 13.5112 14.3334 15.4487H4.33344ZM9.5951 21.6449L32.2616 25.507L33.9412 15.649L11.2748 11.787L9.5951 21.6449ZM32.2314 25.5017C32.5969 25.5663 32.969 25.5989 33.3436 25.5981L33.3229 15.5981C33.5418 15.5977 33.7589 15.6167 33.9714 15.6543L32.2314 25.5017ZM33.3387 25.5981C36.6654 25.5945 39.6623 22.9476 39.6666 19.3166L29.6666 19.3049C29.6692 17.0952 31.473 15.6002 33.3278 15.5981L33.3387 25.5981ZM39.6666 19.3108V12.874H29.6666V19.3108H39.6666ZM39.6666 12.874C39.6666 9.68653 37.3182 7.17318 34.4029 6.67755L32.7269 16.5361C31.0856 16.2571 29.6666 14.8125 29.6666 12.874L39.6666 12.874ZM32.8394 12.8468L12.8396 9.43982L11.1603 19.2978L31.1601 22.7048L32.8394 12.8468ZM16.9999 14.3688V10.547H6.99991V14.3688H16.9999ZM11.1603 15.476L31.1601 18.883L32.8394 9.02498L12.8396 5.61802L11.1603 15.476ZM26.9997 13.954V17.7758H36.9997V13.954H26.9997Z" fill="white" mask="url(#path-4-inside-2)"/>
<mask id="path-6-inside-3" fill="white">
<path d="M65.3328 34.7593C65.245 34.7593 65.1573 34.7676 65.0711 34.7844L45.0713 38.6464C44.4485 38.7671 44.0001 39.2952 43.9996 39.9087V46.3454C43.9998 47.0563 44.5966 47.6326 45.333 47.6327C45.4208 47.6324 45.5085 47.624 45.5946 47.6076L65.5945 43.7456C66.2173 43.6249 66.6656 43.0968 66.6661 42.4833V36.0466C66.6661 35.3355 66.0691 34.7591 65.3328 34.7593ZM63.9995 41.4284L46.6663 44.775V40.9633L63.9995 37.6167V41.4284Z"/>
</mask>
<path d="M65.3328 34.7593C65.245 34.7593 65.1573 34.7676 65.0711 34.7844L45.0713 38.6464C44.4485 38.7671 44.0001 39.2952 43.9996 39.9087V46.3454C43.9998 47.0563 44.5966 47.6326 45.333 47.6327C45.4208 47.6324 45.5085 47.624 45.5946 47.6076L65.5945 43.7456C66.2173 43.6249 66.6656 43.0968 66.6661 42.4833V36.0466C66.6661 35.3355 66.0691 34.7591 65.3328 34.7593ZM63.9995 41.4284L46.6663 44.775V40.9633L63.9995 37.6167V41.4284Z" fill="white"/>
<path d="M65.3328 34.7593L65.3328 39.7593L65.3339 39.7593L65.3328 34.7593ZM65.0711 34.7844L66.0191 39.6937L66.0244 39.6927L65.0711 34.7844ZM45.0713 38.6464L44.1233 33.7371L44.1201 33.7377L45.0713 38.6464ZM43.9996 39.9087L38.9996 39.9046V39.9087H43.9996ZM43.9996 46.3454L38.9996 46.3454L38.9996 46.3466L43.9996 46.3454ZM45.333 47.6327L45.3319 52.6327L45.3416 52.6327L45.3513 52.6327L45.333 47.6327ZM45.5946 47.6076L46.5302 52.5193L46.5426 52.5169L45.5946 47.6076ZM65.5945 43.7456L66.5425 48.6549L66.5456 48.6543L65.5945 43.7456ZM66.6661 42.4833L71.6661 42.4874V42.4833H66.6661ZM63.9995 41.4284L64.9473 46.3377L68.9995 45.5553V41.4284H63.9995ZM46.6663 44.775H41.6663V50.8327L47.6142 49.6843L46.6663 44.775ZM46.6663 40.9633L45.7184 36.054L41.6663 36.8364V40.9633H46.6663ZM63.9995 37.6167H68.9995V31.559L63.0516 32.7074L63.9995 37.6167ZM65.3328 29.7593C64.9277 29.7593 64.5207 29.7978 64.1178 29.8761L66.0244 39.6927C65.7938 39.7374 65.5622 39.7593 65.3328 39.7593V29.7593ZM64.1231 29.8751L44.1233 33.7371L46.0193 43.5557L66.0191 39.6937L64.1231 29.8751ZM44.1201 33.7377C41.2658 34.2908 39.0022 36.7799 38.9996 39.9046L48.9996 39.9127C48.9981 41.8106 47.6311 43.2434 46.0225 43.5551L44.1201 33.7377ZM38.9996 39.9087V46.3454H48.9996V39.9087H38.9996ZM38.9996 46.3466C39.0005 49.9819 42.0017 52.632 45.3319 52.6327L45.334 42.6327C47.1915 42.6331 48.9991 44.1308 48.9996 46.3442L38.9996 46.3466ZM45.3513 52.6327C45.7441 52.6313 46.1389 52.5938 46.5302 52.5193L44.659 42.6959C44.878 42.6542 45.0975 42.6336 45.3146 42.6328L45.3513 52.6327ZM46.5426 52.5169L66.5425 48.6549L64.6465 38.8363L44.6466 42.6983L46.5426 52.5169ZM66.5456 48.6543C69.3999 48.1012 71.6636 45.6122 71.6661 42.4874L61.6661 42.4793C61.6677 40.5814 63.0346 39.1486 64.6433 38.8369L66.5456 48.6543ZM71.6661 42.4833V36.0466H61.6661V42.4833H71.6661ZM71.6661 36.0466C71.6661 32.4107 68.6641 29.7585 65.3317 29.7593L65.3339 39.7593C63.4742 39.7597 61.6661 38.2603 61.6661 36.0466H71.6661ZM63.0516 36.519L45.7184 39.8657L47.6142 49.6843L64.9473 46.3377L63.0516 36.519ZM51.6663 44.775V40.9633H41.6663V44.775H51.6663ZM47.6142 45.8726L64.9473 42.526L63.0516 32.7074L45.7184 36.054L47.6142 45.8726ZM58.9995 37.6167V41.4284H68.9995V37.6167H58.9995Z" fill="white" mask="url(#path-6-inside-3)"/>
<mask id="path-8-inside-4" fill="white">
<path d="M34.8982 38.6412L25.565 37.0508C25.1767 36.9816 24.7768 37.0851 24.4765 37.3324C24.1743 37.5765 23.9997 37.9376 24 38.318V44.7548C24 45.3793 24.4645 45.9137 25.1015 46.022L34.4347 47.6124C34.5112 47.6259 34.5887 47.6326 34.6666 47.6325C35.4026 47.6317 35.9991 47.0557 35.9999 46.3451V39.9084C35.9999 39.2839 35.5352 38.7495 34.8982 38.6412ZM33.3331 44.8101L26.6665 43.6749V39.853L33.3331 40.9883V44.8101Z"/>
</mask>
<path d="M34.8982 38.6412L25.565 37.0508C25.1767 36.9816 24.7768 37.0851 24.4765 37.3324C24.1743 37.5765 23.9997 37.9376 24 38.318V44.7548C24 45.3793 24.4645 45.9137 25.1015 46.022L34.4347 47.6124C34.5112 47.6259 34.5887 47.6326 34.6666 47.6325C35.4026 47.6317 35.9991 47.0557 35.9999 46.3451V39.9084C35.9999 39.2839 35.5352 38.7495 34.8982 38.6412ZM33.3331 44.8101L26.6665 43.6749V39.853L33.3331 40.9883V44.8101Z" fill="white"/>
<path d="M34.8982 38.6412L34.0584 43.5701L34.0602 43.5704L34.8982 38.6412ZM25.565 37.0508L24.6879 41.9733L24.7065 41.9766L24.7251 41.9798L25.565 37.0508ZM24.4765 37.3324L27.6186 41.2218L27.6369 41.207L27.655 41.1921L24.4765 37.3324ZM24 38.318L29 38.318L29 38.3137L24 38.318ZM25.1015 46.022L25.9414 41.093L25.9395 41.0927L25.1015 46.022ZM34.4347 47.6124L35.3047 42.6886L35.2897 42.686L35.2746 42.6834L34.4347 47.6124ZM34.6666 47.6325L34.6611 42.6325L34.6562 42.6325L34.6666 47.6325ZM35.9999 46.3451L40.9999 46.351V46.3451H35.9999ZM35.9999 39.9084H30.9999H35.9999ZM33.3331 44.8101L32.4937 49.7392L38.3331 50.7336V44.8101H33.3331ZM26.6665 43.6749H21.6665V47.8954L25.8271 48.6039L26.6665 43.6749ZM26.6665 39.853L27.5059 34.924L21.6665 33.9296V39.853H26.6665ZM33.3331 40.9883H38.3331V36.7678L34.1725 36.0593L33.3331 40.9883ZM35.7381 33.7122L26.4049 32.1219L24.7251 41.9798L34.0584 43.5701L35.7381 33.7122ZM26.4421 32.1284C24.6341 31.8062 22.7468 32.2796 21.298 33.4728L27.655 41.1921C26.8069 41.8906 25.7193 42.1571 24.6879 41.9733L26.4421 32.1284ZM21.3344 33.4431C19.8859 34.6132 18.9983 36.3919 19 38.3224L29 38.3137C29.001 39.4834 28.4627 40.5398 27.6186 41.2218L21.3344 33.4431ZM19 38.318V44.7548H29V38.318H19ZM19 44.7548C19 47.9414 21.3473 50.4555 24.2634 50.9513L25.9395 41.0927C27.5817 41.3719 29 42.8172 29 44.7548H19ZM24.2616 50.951L33.5949 52.5413L35.2746 42.6834L25.9414 41.093L24.2616 50.951ZM33.5647 52.5361C33.9302 52.6007 34.3023 52.6332 34.6769 52.6325L34.6562 42.6325C34.8752 42.632 35.0923 42.6511 35.3047 42.6886L33.5647 52.5361ZM34.672 52.6325C37.9988 52.6288 40.9956 49.982 40.9999 46.351L30.9999 46.3393C31.0025 44.1295 32.8064 42.6345 34.6611 42.6325L34.672 52.6325ZM40.9999 46.3451V39.9084H30.9999V46.3451H40.9999ZM40.9999 39.9084C40.9999 36.7209 38.6515 34.2075 35.7363 33.7119L34.0602 43.5704C32.419 43.2914 30.9999 41.8469 30.9999 39.9084L40.9999 39.9084ZM34.1725 39.8811L27.5059 38.7458L25.8271 48.6039L32.4937 49.7392L34.1725 39.8811ZM31.6665 43.6749V39.853H21.6665V43.6749H31.6665ZM25.8271 44.7821L32.4937 45.9174L34.1725 36.0593L27.5059 34.924L25.8271 44.7821ZM28.3331 40.9883V44.8101H38.3331V40.9883H28.3331Z" fill="white" mask="url(#path-8-inside-4)"/>
<mask id="path-10-inside-5" fill="white">
<path d="M67.9983 8.70972C67.9209 8.70972 67.8439 8.71631 67.7678 8.72919L58.4345 10.3195C57.7975 10.4278 57.3328 10.9622 57.333 11.5868V18.0235C57.3338 18.7341 57.9303 19.31 58.6663 19.3108C58.744 19.311 58.8217 19.3042 58.8982 19.2907L68.2314 17.7004C68.8684 17.5921 69.3331 17.0577 69.3329 16.4331V9.99642C69.3322 9.28532 68.7348 8.70923 67.9983 8.70972ZM66.6661 15.3532L59.9995 16.4885V12.6667L66.6661 11.5314V15.3532Z"/>
</mask>
<path d="M67.9983 8.70972C67.9209 8.70972 67.8439 8.71631 67.7678 8.72919L58.4345 10.3195C57.7975 10.4278 57.3328 10.9622 57.333 11.5868V18.0235C57.3338 18.7341 57.9303 19.31 58.6663 19.3108C58.744 19.311 58.8217 19.3042 58.8982 19.2907L68.2314 17.7004C68.8684 17.5921 69.3331 17.0577 69.3329 16.4331V9.99642C69.3322 9.28532 68.7348 8.70923 67.9983 8.70972ZM66.6661 15.3532L59.9995 16.4885V12.6667L66.6661 11.5314V15.3532Z" fill="white"/>
<path d="M67.9983 8.70972L67.9983 13.7097L68.0015 13.7097L67.9983 8.70972ZM67.7678 8.72919L66.9345 3.79911L66.9279 3.80023L67.7678 8.72919ZM58.4345 10.3195L59.2725 15.2488L59.2744 15.2485L58.4345 10.3195ZM57.333 11.5868L62.333 11.5868L62.333 11.5854L57.333 11.5868ZM57.333 18.0235L52.333 18.0235L52.333 18.0294L57.333 18.0235ZM58.6663 19.3108L58.6767 14.3109L58.6718 14.3108L58.6663 19.3108ZM58.8982 19.2907L58.0583 14.3618L58.0432 14.3643L58.0282 14.367L58.8982 19.2907ZM68.2314 17.7004L67.3934 12.7711L67.3915 12.7714L68.2314 17.7004ZM69.3329 16.4331L64.3329 16.4331L64.3329 16.4345L69.3329 16.4331ZM69.3329 9.99642L74.3329 9.99642L74.3329 9.99173L69.3329 9.99642ZM66.6661 15.3532L67.5055 20.2823L71.6661 19.5737V15.3532H66.6661ZM59.9995 16.4885H54.9995V22.4119L60.8389 21.4175L59.9995 16.4885ZM59.9995 12.6667L59.1601 7.73765L54.9995 8.44618V12.6667H59.9995ZM66.6661 11.5314H71.6661V5.60797L65.8267 6.60238L66.6661 11.5314ZM67.9983 3.70972C67.636 3.70972 67.2803 3.74066 66.9345 3.79911L68.601 13.6593C68.4075 13.692 68.2058 13.7097 67.9983 13.7097V3.70972ZM66.9279 3.80023L57.5946 5.39059L59.2744 15.2485L68.6076 13.6581L66.9279 3.80023ZM57.5965 5.39027C54.6814 5.88587 52.3322 8.39939 52.333 11.5881L62.333 11.5854C62.3335 13.5251 60.9136 14.9698 59.2725 15.2488L57.5965 5.39027ZM52.333 11.5868V18.0235H62.333V11.5868H52.333ZM52.333 18.0294C52.3373 21.6604 55.3341 24.3072 58.6609 24.3108L58.6718 14.3108C60.5265 14.3129 62.3304 15.8079 62.333 18.0176L52.333 18.0294ZM58.656 24.3108C59.0301 24.3116 59.4024 24.2791 59.7682 24.2145L58.0282 14.367C58.2409 14.3294 58.4579 14.3104 58.6767 14.3109L58.656 24.3108ZM59.738 24.2197L69.0713 22.6293L67.3915 12.7714L58.0583 14.3618L59.738 24.2197ZM69.0695 22.6296C71.9845 22.1341 74.3338 19.6206 74.3329 16.4318L64.3329 16.4345C64.3324 14.4948 65.7524 13.0501 67.3934 12.7711L69.0695 22.6296ZM74.3329 16.4331V9.99642H64.3329V16.4331H74.3329ZM74.3329 9.99173C74.3295 6.35644 71.3261 3.70753 67.995 3.70972L68.0015 13.7097C66.1434 13.7109 64.335 12.2142 64.3329 10.0011L74.3329 9.99173ZM65.8267 10.4242L59.1601 11.5595L60.8389 21.4175L67.5055 20.2823L65.8267 10.4242ZM64.9995 16.4885V12.6667H54.9995V16.4885H64.9995ZM60.8389 17.5957L67.5055 16.4605L65.8267 6.60238L59.1601 7.73765L60.8389 17.5957ZM61.6661 11.5314V15.3532H71.6661V11.5314H61.6661Z" fill="white" mask="url(#path-10-inside-5)"/>
<mask id="path-12-inside-6" fill="white">
<path d="M12.2323 20.6181L11.7691 23.1523L34.4364 27.0148L34.8996 24.4805L12.2323 20.6181Z"/>
</mask>
<path d="M12.2323 20.6181L11.7691 23.1523L34.4364 27.0148L34.8996 24.4805L12.2323 20.6181Z" fill="white"/>
<path d="M11.7691 23.1523L6.84006 22.3124L5.94101 27.2311L10.8701 28.0709L11.7691 23.1523ZM12.2323 20.6181L13.1314 15.6995L8.20233 14.8596L7.30329 19.7782L12.2323 20.6181ZM34.8996 24.4805L39.8287 25.3204L40.7277 20.4018L35.7987 19.5619L34.8996 24.4805ZM34.4364 27.0148L33.5373 31.9334L38.4664 32.7733L39.3654 27.8547L34.4364 27.0148ZM16.6982 23.9922L17.1614 21.458L7.30329 19.7782L6.84006 22.3124L16.6982 23.9922ZM11.3333 25.5367L34.0006 29.3991L35.7987 19.5619L13.1314 15.6995L11.3333 25.5367ZM29.9706 23.6406L29.5073 26.1749L39.3654 27.8547L39.8287 25.3204L29.9706 23.6406ZM35.3354 22.0962L12.6682 18.2337L10.8701 28.0709L33.5373 31.9334L35.3354 22.0962Z" fill="white" mask="url(#path-12-inside-6)"/>
<mask id="path-14-inside-7" fill="white">
<path d="M25.562 30.3864L25.0988 32.9207L35.766 34.7383L36.2293 32.204L25.562 30.3864Z"/>
</mask>
<path d="M25.562 30.3864L25.0988 32.9207L35.766 34.7383L36.2293 32.204L25.562 30.3864Z" fill="white"/>
<path d="M25.0988 32.9207L20.1697 32.0808L19.2707 36.9994L24.1997 37.8393L25.0988 32.9207ZM25.562 30.3864L26.461 25.4678L21.532 24.6279L20.6329 29.5465L25.562 30.3864ZM36.2293 32.204L41.1583 33.0439L42.0573 28.1253L37.1283 27.2854L36.2293 32.204ZM35.766 34.7383L34.867 39.6569L39.796 40.4968L40.6951 35.5782L35.766 34.7383ZM30.0278 33.7605L30.491 31.2263L20.6329 29.5465L20.1697 32.0808L30.0278 33.7605ZM24.6629 35.305L35.3302 37.1226L37.1283 27.2854L26.461 25.4678L24.6629 35.305ZM31.3002 31.3641L30.837 33.8984L40.6951 35.5782L41.1583 33.0439L31.3002 31.3641ZM36.6651 29.8197L25.9978 28.0021L24.1997 37.8393L34.867 39.6569L36.6651 29.8197Z" fill="white" mask="url(#path-14-inside-7)"/>
<mask id="path-16-inside-8" fill="white">
<path d="M14.8996 28.3424L14.4364 30.8767L21.993 32.1643L22.4563 29.6301L14.8996 28.3424Z"/>
</mask>
<path d="M14.8996 28.3424L14.4364 30.8767L21.993 32.1643L22.4563 29.6301L14.8996 28.3424Z" fill="white"/>
<path d="M14.4364 30.8767L9.50735 30.0368L8.6083 34.9554L13.5374 35.7953L14.4364 30.8767ZM14.8996 28.3424L15.7987 23.4238L10.8696 22.5839L9.97058 27.5025L14.8996 28.3424ZM22.4563 29.6301L27.3853 30.4699L28.2844 25.5513L23.3553 24.7114L22.4563 29.6301ZM21.993 32.1643L21.094 37.0829L26.023 37.9228L26.9221 33.0042L21.993 32.1643ZM19.3654 31.7166L19.8287 29.1823L9.97058 27.5025L9.50735 30.0368L19.3654 31.7166ZM14.0006 33.261L21.5572 34.5487L23.3553 24.7114L15.7987 23.4238L14.0006 33.261ZM17.5272 28.7902L17.064 31.3244L26.9221 33.0042L27.3853 30.4699L17.5272 28.7902ZM22.8921 27.2457L15.3355 25.9581L13.5374 35.7953L21.094 37.0829L22.8921 27.2457Z" fill="white" mask="url(#path-16-inside-8)"/>
<mask id="path-18-inside-9" fill="white">
<path d="M24.23 65.1417L23.7668 67.676L34.434 69.4937L34.8973 66.9594L24.23 65.1417Z"/>
</mask>
<path d="M24.23 65.1417L23.7668 67.676L34.434 69.4937L34.8973 66.9594L24.23 65.1417Z" fill="white"/>
<path d="M23.7668 67.676L18.8377 66.8361L17.9387 71.7547L22.8677 72.5946L23.7668 67.676ZM24.23 65.1417L25.1291 60.2231L20.2 59.3832L19.301 64.3018L24.23 65.1417ZM34.8973 66.9594L39.8263 67.7993L40.7254 62.8807L35.7963 62.0408L34.8973 66.9594ZM34.434 69.4937L33.535 74.4123L38.464 75.2522L39.3631 70.3336L34.434 69.4937ZM28.6958 68.5159L29.1591 65.9816L19.301 64.3018L18.8377 66.8361L28.6958 68.5159ZM23.331 70.0603L33.9982 71.878L35.7963 62.0408L25.1291 60.2231L23.331 70.0603ZM29.9682 66.1195L29.505 68.6538L39.3631 70.3336L39.8263 67.7993L29.9682 66.1195ZM35.3331 64.5751L24.6658 62.7574L22.8677 72.5946L33.535 74.4123L35.3331 64.5751Z" fill="white" mask="url(#path-18-inside-9)"/>
<mask id="path-20-inside-10" fill="white">
<path d="M13.5675 63.1024L13.1043 65.6367L20.6609 66.9244L21.1242 64.39L13.5675 63.1024Z"/>
</mask>
<path d="M13.5675 63.1024L13.1043 65.6367L20.6609 66.9244L21.1242 64.39L13.5675 63.1024Z" fill="white"/>
<path d="M13.1043 65.6367L8.17526 64.7968L7.27622 69.7154L12.2053 70.5553L13.1043 65.6367ZM13.5675 63.1024L14.4666 58.1838L9.53754 57.3439L8.63849 62.2625L13.5675 63.1024ZM21.1242 64.39L26.0532 65.2299L26.9523 60.3113L22.0232 59.4714L21.1242 64.39ZM20.6609 66.9244L19.7619 71.843L24.6909 72.6829L25.59 67.7643L20.6609 66.9244ZM18.0334 66.4766L18.4966 63.9423L8.63849 62.2625L8.17526 64.7968L18.0334 66.4766ZM12.6685 68.021L20.2251 69.3087L22.0232 59.4714L14.4666 58.1838L12.6685 68.021ZM16.1951 63.5502L15.7319 66.0845L25.59 67.7643L26.0532 65.2299L16.1951 63.5502ZM21.56 62.0058L14.0034 60.7181L12.2053 70.5553L19.7619 71.843L21.56 62.0058Z" fill="white" mask="url(#path-20-inside-10)"/>
<mask id="path-22-inside-11" fill="white">
<path d="M12.2329 55.3798L11.7697 57.9141L34.437 61.7765L34.9002 59.2422L12.2329 55.3798Z"/>
</mask>
<path d="M12.2329 55.3798L11.7697 57.9141L34.437 61.7765L34.9002 59.2422L12.2329 55.3798Z" fill="white"/>
<path d="M11.7697 57.9141L6.84067 57.0742L5.94162 61.9928L10.8707 62.8327L11.7697 57.9141ZM12.2329 55.3798L13.132 50.4612L8.20295 49.6213L7.3039 54.5399L12.2329 55.3798ZM34.9002 59.2422L39.8293 60.0821L40.7283 55.1635L35.7993 54.3236L34.9002 59.2422ZM34.437 61.7765L33.538 66.6951L38.467 67.535L39.366 62.6164L34.437 61.7765ZM16.6988 58.754L17.162 56.2197L7.3039 54.5399L6.84067 57.0742L16.6988 58.754ZM11.3339 60.2984L34.0012 64.1608L35.7993 54.3236L13.132 50.4612L11.3339 60.2984ZM29.9712 58.4023L29.508 60.9366L39.366 62.6164L39.8293 60.0821L29.9712 58.4023ZM35.3361 56.8579L12.6688 52.9955L10.8707 62.8327L33.538 66.6951L35.3361 56.8579Z" fill="white" mask="url(#path-22-inside-11)"/>
<mask id="path-24-inside-12" fill="white">
<path d="M14.9258 38.6432L14.4023 41.1677L21.0684 42.4563L21.5918 39.9318L14.9258 38.6432Z"/>
</mask>
<path d="M14.9258 38.6432L14.4023 41.1677L21.0684 42.4563L21.5918 39.9318L14.9258 38.6432Z" fill="white"/>
<path d="M14.4023 41.1677L9.49343 40.2188L8.4783 45.1145L13.3872 46.0634L14.4023 41.1677ZM14.9258 38.6432L15.9409 33.7476L11.032 32.7987L10.0169 37.6943L14.9258 38.6432ZM21.5918 39.9318L26.5008 40.8807L27.5159 35.985L22.607 35.0361L21.5918 39.9318ZM21.0684 42.4563L20.0533 47.3519L24.9622 48.3008L25.9773 43.4052L21.0684 42.4563ZM19.3113 42.1166L19.8347 39.5921L10.0169 37.6943L9.49343 40.2188L19.3113 42.1166ZM13.9107 43.5389L20.5767 44.8274L22.607 35.0361L15.9409 33.7476L13.9107 43.5389ZM16.6829 38.9829L16.1595 41.5074L25.9773 43.4052L26.5008 40.8807L16.6829 38.9829ZM22.0835 37.5606L15.4175 36.2721L13.3872 46.0634L20.0533 47.3519L22.0835 37.5606Z" fill="white" mask="url(#path-24-inside-12)"/>
<mask id="path-26-inside-13" fill="white">
<path d="M13.5793 47.6564L13.0881 50.1858L34.4221 54.0481L34.9133 51.5187L13.5793 47.6564Z"/>
</mask>
<path d="M13.5793 47.6564L13.0881 50.1858L34.4221 54.0481L34.9133 51.5187L13.5793 47.6564Z" fill="white"/>
<path d="M13.0881 50.1858L8.16791 49.295L7.21467 54.2035L12.1348 55.0942L13.0881 50.1858ZM13.5793 47.6564L14.5325 42.7479L9.61236 41.8572L8.65912 46.7656L13.5793 47.6564ZM34.9133 51.5187L39.8334 52.4095L40.7867 47.501L35.8665 46.6103L34.9133 51.5187ZM34.4221 54.0481L33.4688 58.9566L38.389 59.8473L39.3422 54.9389L34.4221 54.0481ZM18.0082 51.0765L18.4995 48.5471L8.65912 46.7656L8.16791 49.295L18.0082 51.0765ZM12.6261 52.5648L33.96 56.4272L35.8665 46.6103L14.5325 42.7479L12.6261 52.5648ZM29.9931 50.628L29.5019 53.1574L39.3422 54.9389L39.8334 52.4095L29.9931 50.628ZM35.3753 49.1397L14.0413 45.2773L12.1348 55.0942L33.4688 58.9566L35.3753 49.1397Z" fill="white" mask="url(#path-26-inside-13)"/>
<mask id="path-28-inside-14" fill="white">
<path d="M67.7705 20.6161L45.1032 24.4807L45.5667 27.015L68.234 23.1503L67.7705 20.6161Z"/>
</mask>
<path d="M67.7705 20.6161L45.1032 24.4807L45.5667 27.015L68.234 23.1503L67.7705 20.6161Z" fill="white"/>
<path d="M45.1032 24.4807L44.2036 19.5621L39.2746 20.4025L40.1742 25.3211L45.1032 24.4807ZM67.7705 20.6161L72.6995 19.7757L71.8 14.8571L66.8709 15.6975L67.7705 20.6161ZM68.234 23.1503L69.1336 28.0689L74.0626 27.2286L73.163 22.31L68.234 23.1503ZM45.5667 27.015L40.6377 27.8554L41.5372 32.774L46.4663 31.9336L45.5667 27.015ZM46.0028 29.3993L68.6701 25.5347L66.8709 15.6975L44.2036 19.5621L46.0028 29.3993ZM62.8414 21.4564L63.3049 23.9907L73.163 22.31L72.6995 19.7757L62.8414 21.4564ZM67.3344 18.2318L44.6671 22.0964L46.4663 31.9336L69.1336 28.0689L67.3344 18.2318ZM50.4958 26.1746L50.0323 23.6403L40.1742 25.3211L40.6377 27.8554L50.4958 26.1746Z" fill="white" mask="url(#path-28-inside-14)"/>
<mask id="path-30-inside-15" fill="white">
<path d="M54.4366 30.3871L43.7693 32.2058L44.2328 34.7401L54.9001 32.9214L54.4366 30.3871Z"/>
</mask>
<path d="M54.4366 30.3871L43.7693 32.2058L44.2328 34.7401L54.9001 32.9214L54.4366 30.3871Z" fill="white"/>
<path d="M43.7693 32.2058L42.8698 27.2872L37.9407 28.1276L38.8403 33.0462L43.7693 32.2058ZM54.4366 30.3871L59.3657 29.5467L58.4661 24.6281L53.5371 25.4685L54.4366 30.3871ZM54.9001 32.9214L55.7997 37.84L60.7287 36.9996L59.8292 32.081L54.9001 32.9214ZM44.2328 34.7401L39.3038 35.5805L40.2034 40.4991L45.1324 39.6587L44.2328 34.7401ZM44.6689 37.1244L55.3362 35.3057L53.5371 25.4685L42.8698 27.2872L44.6689 37.1244ZM49.5076 31.2275L49.9711 33.7618L59.8292 32.081L59.3657 29.5467L49.5076 31.2275ZM54.0005 28.0028L43.3333 29.8215L45.1324 39.6587L55.7997 37.84L54.0005 28.0028ZM49.1619 33.8997L48.6984 31.3654L38.8403 33.0462L39.3038 35.5805L49.1619 33.8997Z" fill="white" mask="url(#path-30-inside-15)"/>
<mask id="path-32-inside-16" fill="white">
<path d="M65.1055 28.3403L57.5488 29.6279L58.0121 32.1622L65.5687 30.8746L65.1055 28.3403Z"/>
</mask>
<path d="M65.1055 28.3403L57.5488 29.6279L58.0121 32.1622L65.5687 30.8746L65.1055 28.3403Z" fill="white"/>
<path d="M57.5488 29.6279L56.6498 24.7093L51.7207 25.5492L52.6198 30.4678L57.5488 29.6279ZM65.1055 28.3403L70.0345 27.5004L69.1355 22.5818L64.2064 23.4217L65.1055 28.3403ZM65.5687 30.8746L66.4677 35.7932L71.3968 34.9533L70.4977 30.0347L65.5687 30.8746ZM58.0121 32.1622L53.083 33.0021L53.9821 37.9207L58.9111 37.0808L58.0121 32.1622ZM58.4479 34.5465L66.0045 33.2589L64.2064 23.4217L56.6498 24.7093L58.4479 34.5465ZM60.1764 29.1802L60.6396 31.7145L70.4977 30.0347L70.0345 27.5004L60.1764 29.1802ZM64.6696 25.956L57.113 27.2436L58.9111 37.0808L66.4677 35.7932L64.6696 25.956ZM62.9411 31.3223L62.4779 28.788L52.6198 30.4678L53.083 33.0021L62.9411 31.3223Z" fill="white" mask="url(#path-32-inside-16)"/>
<mask id="path-34-inside-17" fill="white">
<path d="M55.7691 65.141L45.1018 66.9597L45.5653 69.494L56.2326 67.6753L55.7691 65.141Z"/>
</mask>
<path d="M55.7691 65.141L45.1018 66.9597L45.5653 69.494L56.2326 67.6753L55.7691 65.141Z" fill="white"/>
<path d="M45.1018 66.9597L44.2022 62.0411L39.2732 62.8815L40.1728 67.8001L45.1018 66.9597ZM55.7691 65.141L60.6981 64.3006L59.7986 59.382L54.8695 60.2224L55.7691 65.141ZM56.2326 67.6753L57.1321 72.5939L62.0612 71.7535L61.1616 66.8349L56.2326 67.6753ZM45.5653 69.494L40.6363 70.3344L41.5358 75.253L46.4649 74.4126L45.5653 69.494ZM46.0014 71.8783L56.6686 70.0596L54.8695 60.2224L44.2022 62.0411L46.0014 71.8783ZM50.84 65.9814L51.3035 68.5157L61.1616 66.8349L60.6981 64.3006L50.84 65.9814ZM55.333 62.7567L44.6657 64.5754L46.4649 74.4126L57.1321 72.5939L55.333 62.7567ZM50.4944 68.6536L50.0309 66.1193L40.1728 67.8001L40.6363 70.3344L50.4944 68.6536Z" fill="white" mask="url(#path-34-inside-17)"/>
<mask id="path-36-inside-18" fill="white">
<path d="M66.4388 63.1018L58.8821 64.3901L59.3456 66.9244L66.9023 65.636L66.4388 63.1018Z"/>
</mask>
<path d="M66.4388 63.1018L58.8821 64.3901L59.3456 66.9244L66.9023 65.636L66.4388 63.1018Z" fill="white"/>
<path d="M58.8821 64.3901L57.9826 59.4715L53.0535 60.3119L53.9531 65.2305L58.8821 64.3901ZM66.4388 63.1018L71.3678 62.2614L70.4683 57.3428L65.5392 58.1832L66.4388 63.1018ZM66.9023 65.636L67.8018 70.5546L72.7309 69.7143L71.8313 64.7957L66.9023 65.636ZM59.3456 66.9244L54.4166 67.7648L55.3161 72.6834L60.2452 71.843L59.3456 66.9244ZM59.7817 69.3087L67.3383 68.0204L65.5392 58.1832L57.9826 59.4715L59.7817 69.3087ZM61.5097 63.9422L61.9732 66.4764L71.8313 64.7957L71.3678 62.2614L61.5097 63.9422ZM66.0027 60.7175L58.4461 62.0058L60.2452 71.843L67.8018 70.5546L66.0027 60.7175ZM64.2747 66.084L63.8112 63.5498L53.9531 65.2305L54.4166 67.7648L64.2747 66.084Z" fill="white" mask="url(#path-36-inside-18)"/>
<mask id="path-38-inside-19" fill="white">
<path d="M67.7708 55.3763L45.1035 59.241L45.567 61.7753L68.2343 57.9106L67.7708 55.3763Z"/>
</mask>
<path d="M67.7708 55.3763L45.1035 59.241L45.567 61.7753L68.2343 57.9106L67.7708 55.3763Z" fill="white"/>
<path d="M45.1035 59.241L44.204 54.3224L39.2749 55.1627L40.1745 60.0813L45.1035 59.241ZM67.7708 55.3763L72.6999 54.5359L71.8003 49.6173L66.8712 50.4577L67.7708 55.3763ZM68.2343 57.9106L69.1339 62.8292L74.0629 61.9888L73.1633 57.0702L68.2343 57.9106ZM45.567 61.7753L40.638 62.6156L41.5375 67.5342L46.4666 66.6939L45.567 61.7753ZM46.0031 64.1596L68.6704 60.2949L66.8712 50.4577L44.204 54.3224L46.0031 64.1596ZM62.8417 56.2167L63.3052 58.751L73.1633 57.0702L72.6999 54.5359L62.8417 56.2167ZM67.3347 52.992L44.6674 56.8567L46.4666 66.6939L69.1339 62.8292L67.3347 52.992ZM50.4961 60.9349L50.0326 58.4006L40.1745 60.0813L40.638 62.6156L50.4961 60.9349Z" fill="white" mask="url(#path-38-inside-19)"/>
<mask id="path-40-inside-20" fill="white">
<path d="M54.4016 14.1851L47.7355 15.4736L48.259 17.9981L54.9251 16.7096L54.4016 14.1851Z"/>
</mask>
<path d="M54.4016 14.1851L47.7355 15.4736L48.259 17.9981L54.9251 16.7096L54.4016 14.1851Z" fill="white"/>
<path d="M47.7355 15.4736L46.7204 10.578L41.8115 11.5269L42.8266 16.4225L47.7355 15.4736ZM54.4016 14.1851L59.3105 13.2362L58.2954 8.34054L53.3865 9.28944L54.4016 14.1851ZM54.9251 16.7096L55.9402 21.6052L60.8491 20.6563L59.834 15.7607L54.9251 16.7096ZM48.259 17.9981L43.3501 18.947L44.3652 23.8427L49.2741 22.8938L48.259 17.9981ZM48.7507 20.3693L55.4167 19.0807L53.3865 9.28944L46.7204 10.578L48.7507 20.3693ZM49.4927 15.134L50.0161 17.6585L59.834 15.7607L59.3105 13.2362L49.4927 15.134ZM53.9099 11.8139L47.2439 13.1025L49.2741 22.8938L55.9402 21.6052L53.9099 11.8139ZM53.1679 17.0492L52.6444 14.5247L42.8266 16.4225L43.3501 18.947L53.1679 17.0492Z" fill="white" mask="url(#path-40-inside-20)"/>
<mask id="path-42-inside-21" fill="white">
<path d="M66.418 47.6536L45.086 51.5222L45.578 54.0514L66.91 50.1827L66.418 47.6536Z"/>
</mask>
<path d="M66.418 47.6536L45.086 51.5222L45.578 54.0514L66.91 50.1827L66.418 47.6536Z" fill="white"/>
<path d="M45.086 51.5222L44.1312 46.6143L39.2115 47.5065L40.1663 52.4144L45.086 51.5222ZM66.418 47.6536L71.3377 46.7614L70.3829 41.8535L65.4632 42.7457L66.418 47.6536ZM66.91 50.1827L67.8648 55.0906L72.7845 54.1984L71.8297 49.2905L66.91 50.1827ZM45.578 54.0514L40.6583 54.9436L41.6131 59.8515L46.5328 58.9593L45.578 54.0514ZM46.0408 56.4301L67.3728 52.5615L65.4632 42.7457L44.1312 46.6143L46.0408 56.4301ZM61.4983 48.5458L61.9903 51.0749L71.8297 49.2905L71.3377 46.7614L61.4983 48.5458ZM65.9552 45.2748L44.6232 49.1434L46.5328 58.9593L67.8648 55.0906L65.9552 45.2748ZM50.4977 53.1592L50.0057 50.63L40.1663 52.4144L40.6583 54.9436L50.4977 53.1592Z" fill="white" mask="url(#path-42-inside-21)"/>
</g>
<defs>
<clipPath id="clip0">
<rect width="80" height="77.2414" fill="white"/>
</clipPath>
</defs>
</svg>
