<svg width="109" height="105" viewBox="0 0 109 105" fill="none" xmlns="http://www.w3.org/2000/svg">
<path d="M54.5 104.416C84.5995 104.416 109 81.0416 109 52.2079C109 23.3743 84.5995 0 54.5 0C24.4005 0 0 23.3743 0 52.2079C0 81.0416 24.4005 104.416 54.5 104.416Z" fill="#382B73"/>
<path d="M54.5 97.3757C80.5406 97.3757 101.651 77.1534 101.651 52.208C101.651 27.2625 80.5406 7.04022 54.5 7.04022C28.4593 7.04022 7.34924 27.2625 7.34924 52.208C7.34924 77.1534 28.4593 97.3757 54.5 97.3757Z" fill="#473080"/>
<path d="M86.5048 38.8079C86.5048 30.8329 79.7558 24.3677 71.4306 24.3677C63.1054 24.3677 56.3564 30.8329 56.3564 38.8079C56.3564 39.0489 56.3632 39.2889 56.3755 39.5268C56.3632 39.7651 56.3564 40.0047 56.3564 40.2456C56.3564 40.5071 56.3646 40.7664 56.3787 41.0248H56.3737H28.8197C28.6796 41.0248 28.5426 41.0384 28.4103 41.0642C28.146 41.1162 27.9 41.2172 27.6841 41.3567C27.5759 41.4266 27.4755 41.5062 27.3833 41.5941C27.0158 41.9461 26.7885 42.4323 26.7885 42.9697V46.7799V79.0094V80.8393C26.7885 81.9136 27.6978 82.7846 28.8193 82.7846H65.5451C66.6666 82.7846 67.5759 81.9136 67.5759 80.8393V79.0094V55.6461V54.208C68.8065 54.5189 70.0978 54.6863 71.4297 54.6863C79.7548 54.6863 86.5039 48.2211 86.5039 40.2461C86.5039 40.0051 86.4971 39.7655 86.4847 39.5272C86.498 39.2889 86.5048 39.0493 86.5048 38.8079Z" fill="#382B73"/>
<path d="M65.5456 79.7242H28.8197C27.6982 79.7242 26.789 78.8531 26.789 77.7788V41.7392C26.789 40.6648 27.6982 39.7938 28.8197 39.7938H65.5456C66.6671 39.7938 67.5764 40.6648 67.5764 41.7392V77.7788C67.5764 78.8531 66.6671 79.7242 65.5456 79.7242Z" fill="#136DA0"/>
<path d="M65.5456 77.8952H28.8197C27.6982 77.8952 26.789 77.0242 26.789 75.9498V39.9102C26.789 38.8358 27.6982 37.9648 28.8197 37.9648H65.5456C66.6671 37.9648 67.5764 38.8358 67.5764 39.9102V75.9498C67.5764 77.0242 66.6671 77.8952 65.5456 77.8952Z" fill="#1CAEE4"/>
<path d="M65.5456 37.964H28.8197C27.6982 37.964 26.789 38.835 26.789 39.9093V43.7195H67.5764V39.9093C67.5764 38.8354 66.6671 37.964 65.5456 37.964Z" fill="#136DA0"/>
<path d="M31.2741 40.842C31.2741 41.3343 30.8573 41.7336 30.3434 41.7336C29.8294 41.7336 29.4127 41.3343 29.4127 40.842C29.4127 40.3496 29.8294 39.9504 30.3434 39.9504C30.8573 39.95 31.2741 40.3496 31.2741 40.842Z" fill="white"/>
<path d="M34.828 40.842C34.828 41.3343 34.4112 41.7336 33.8973 41.7336C33.3833 41.7336 32.9666 41.3343 32.9666 40.842C32.9666 40.3496 33.3833 39.9504 33.8973 39.9504C34.4112 39.95 34.828 40.3496 34.828 40.842Z" fill="white"/>
<path d="M38.3818 40.842C38.3818 41.3343 37.9651 41.7336 37.4511 41.7336C36.9372 41.7336 36.5204 41.3343 36.5204 40.842C36.5204 40.3496 36.9372 39.9504 37.4511 39.9504C37.9651 39.95 38.3818 40.3496 38.3818 40.842Z" fill="white"/>
<path d="M38.9087 69.3582C38.4979 69.3582 38.0866 69.2083 37.773 68.9074L30.9226 62.3456C30.6214 62.057 30.452 61.6657 30.452 61.2577C30.452 60.8497 30.6214 60.4584 30.9222 60.1698L37.7721 53.6075C38.4002 53.0063 39.4162 53.0063 40.0438 53.6075C40.671 54.2083 40.671 55.1825 40.0438 55.7837L34.3291 61.2577L40.0434 66.7317C40.671 67.3325 40.671 68.3066 40.0438 68.9079C39.7307 69.2083 39.3195 69.3582 38.9087 69.3582Z" fill="#009ADD"/>
<path d="M55.4567 69.3578C55.0459 69.3578 54.6347 69.2078 54.3207 68.907C53.6935 68.3062 53.6935 67.332 54.3211 66.7308L60.0354 61.2568L54.3207 55.7829C53.6935 55.1821 53.6935 54.2079 54.3207 53.6067C54.9487 53.0055 55.9648 53.0055 56.5929 53.6067L63.4428 60.169C63.744 60.4575 63.9129 60.8489 63.9129 61.2568C63.9129 61.6648 63.7436 62.0561 63.4423 62.3447L56.5924 68.9066C56.2788 69.2078 55.868 69.3578 55.4567 69.3578Z" fill="#009ADD"/>
<path d="M43.7013 69.3583C43.4562 69.3583 43.2084 69.3045 42.9751 69.1913C42.1841 68.8065 41.8691 67.8804 42.2708 67.1226L49.2308 53.9989C49.6329 53.2412 50.5996 52.9395 51.3907 53.3238C52.1817 53.7086 52.4966 54.6347 52.095 55.3924L45.135 68.5161C44.8516 69.0505 44.287 69.3583 43.7013 69.3583Z" fill="#009ADD"/>
<path d="M38.9087 67.7662C38.4979 67.7662 38.0866 67.6163 37.773 67.3154L30.9226 60.7536C30.6214 60.465 30.452 60.0737 30.452 59.6657C30.452 59.2578 30.6214 58.8664 30.9222 58.5778L37.7721 52.016C38.4002 51.4148 39.4162 51.4148 40.0438 52.016C40.671 52.6168 40.671 53.591 40.0438 54.1922L34.3291 59.6661L40.0434 65.1401C40.671 65.7409 40.671 66.7151 40.0438 67.3163C39.7307 67.6158 39.3195 67.7662 38.9087 67.7662Z" fill="white"/>
<path d="M34.33 59.6649L40.0448 54.1909C40.6719 53.5901 40.6719 52.6159 40.0448 52.0147C39.4564 51.4515 38.5271 51.4161 37.8958 51.9084C37.9382 51.9417 37.9789 51.9771 38.0186 52.0147C38.6457 52.6155 38.6457 53.5897 38.0186 54.1909L32.3038 59.6649L38.0181 65.1388C38.6457 65.7396 38.6457 66.7138 38.0186 67.315C37.9793 67.3526 37.9382 67.3881 37.8958 67.4213C38.1902 67.6513 38.5494 67.7658 38.9086 67.7658C39.3199 67.7658 39.7307 67.6159 40.0448 67.315C40.6719 66.7142 40.6719 65.7401 40.0443 65.1388L34.33 59.6649Z" fill="#E6E7E8"/>
<path d="M55.4567 67.7654C55.0459 67.7654 54.6347 67.6154 54.3207 67.3146C53.6935 66.7138 53.6935 65.7396 54.3211 65.1384L60.0354 59.6644L54.3207 54.1905C53.6935 53.5897 53.6935 52.6155 54.3207 52.0143C54.9487 51.413 55.9648 51.413 56.5929 52.0143L63.4428 58.5761C63.744 58.8647 63.9129 59.256 63.9129 59.664C63.9129 60.072 63.7436 60.4633 63.4423 60.7519L56.5924 67.3137C56.2788 67.615 55.868 67.7654 55.4567 67.7654Z" fill="white"/>
<path d="M56.3473 67.3148C55.7201 66.714 55.7201 65.7398 56.3477 65.1386L62.062 59.6646L56.3473 54.1907C55.7201 53.5899 55.7201 52.6157 56.3473 52.0145C56.387 51.9768 56.4276 51.9414 56.47 51.9082C55.8388 51.4159 54.9094 51.4513 54.3211 52.0145C53.6939 52.6152 53.6939 53.5894 54.3211 54.1907L60.0358 59.6646L54.3215 65.1386C53.6939 65.7394 53.6939 66.7136 54.3211 67.3148C54.6351 67.6152 55.0459 67.7656 55.4572 67.7656C55.8164 67.7656 56.1761 67.6506 56.47 67.421C56.4276 67.3878 56.3865 67.3524 56.3473 67.3148Z" fill="#E6E7E8"/>
<path d="M43.7013 67.7654C43.4562 67.7654 43.2084 67.7116 42.9751 67.5984C42.1841 67.2136 41.8691 66.2875 42.2708 65.5297L49.2308 52.406C49.6329 51.6483 50.5996 51.3466 51.3907 51.7309C52.1817 52.1157 52.4966 53.0418 52.095 53.7996L45.135 66.9232C44.8516 67.4576 44.287 67.7654 43.7013 67.7654Z" fill="white"/>
<path d="M51.3902 51.7309C51.2779 51.6762 51.162 51.6356 51.0442 51.608C51.1328 51.953 51.0976 52.3291 50.9164 52.671L43.956 65.7947C43.6731 66.329 43.1084 66.6368 42.5228 66.6368C42.3959 66.6368 42.2686 66.6224 42.1426 66.5927C42.2503 67.0129 42.5411 67.3872 42.9751 67.5984C43.2084 67.712 43.4567 67.7654 43.7014 67.7654C44.287 67.7654 44.8516 67.4576 45.1346 66.9232L52.095 53.7995C52.4967 53.0418 52.1813 52.1157 51.3902 51.7309Z" fill="#E6E7E8"/>
<path d="M65.5456 37.964H56.3737C56.3636 38.1826 56.3563 38.4021 56.3563 38.6229C56.3563 45.3216 61.1189 50.9534 67.5768 52.5848V39.9089C67.5763 38.835 66.6671 37.964 65.5456 37.964Z" fill="#136DA0"/>
<path d="M86.1023 40.5089C88.0154 32.7475 82.9982 24.9699 74.8961 23.1373C66.7939 21.3046 58.6749 26.1108 56.7618 33.8722C54.8486 41.6336 59.8658 49.4111 67.968 51.2438C76.0701 53.0765 84.1891 48.2703 86.1023 40.5089Z" fill="#E7AD27"/>
<path d="M86.1023 39.0708C88.0154 31.3094 82.9982 23.5318 74.8961 21.6992C66.7939 19.8665 58.6749 24.6726 56.7618 32.434C54.8486 40.1954 59.8658 47.973 67.968 49.8057C76.0701 51.6384 84.1891 46.8322 86.1023 39.0708Z" fill="#FEDE3A"/>
<path d="M83.6266 38.5108C85.2169 32.0591 81.0464 25.5941 74.3115 24.0706C67.5766 22.5472 60.8277 26.5424 59.2374 32.994C57.6471 39.4457 61.8176 45.9108 68.5525 47.4342C75.2874 48.9576 82.0363 44.9625 83.6266 38.5108Z" fill="#F7CB15"/>
<path d="M71.4306 37.1852C70.6017 37.1852 69.9293 36.5416 69.9293 35.7471V26.4922C69.9293 25.6977 70.6017 25.0541 71.4306 25.0541C72.2595 25.0541 72.9318 25.6977 72.9318 26.4922V35.7471C72.9318 36.5416 72.2595 37.1852 71.4306 37.1852Z" fill="#EF5A9D"/>
<path d="M71.4306 25.0541C71.1814 25.0541 70.9495 25.1179 70.7427 25.2211C71.2238 25.4607 71.5557 25.9369 71.5557 26.4922V35.7471C71.5557 36.3024 71.2234 36.7786 70.7427 37.0182C70.9495 37.1214 71.1814 37.1852 71.4306 37.1852C72.2595 37.1852 72.9319 36.5416 72.9319 35.7471V26.4922C72.9319 25.6977 72.2595 25.0541 71.4306 25.0541Z" fill="#E43D91"/>
<path d="M71.4306 38.1446C70.8203 38.1446 70.247 37.7857 70.0229 37.2054C69.7349 36.4608 70.1316 35.6335 70.9089 35.3572L77.2681 33.1005C78.0446 32.8259 78.9091 33.205 79.1971 33.9496C79.4851 34.6943 79.0885 35.5216 78.3111 35.7979L71.9519 38.0546C71.7803 38.1153 71.6041 38.1446 71.4306 38.1446Z" fill="#E7AD27"/>
<path d="M74.1985 36.7061C74.1985 38.1704 72.9593 39.3576 71.4306 39.3576C69.902 39.3576 68.6627 38.1704 68.6627 36.7061C68.6627 35.2417 69.902 34.0546 71.4306 34.0546C72.9593 34.0546 74.1985 35.2417 74.1985 36.7061Z" fill="#E7AD27"/>
<path d="M71.4306 37.1857C70.8203 37.1857 70.247 36.8267 70.0229 36.2469C69.7349 35.5023 70.1316 34.675 70.9089 34.3987L77.2681 32.142C78.0446 31.8674 78.9091 32.2465 79.1971 32.9911C79.4851 33.7358 79.0885 34.5631 78.3111 34.8394L71.9519 37.0961C71.7803 37.1568 71.6041 37.1857 71.4306 37.1857Z" fill="#EF5A9D"/>
<path d="M79.1971 32.9908C79.1195 32.7905 78.9981 32.6191 78.8502 32.4774C78.7347 32.9234 78.3988 33.3086 77.9149 33.4805L71.5557 35.7371C71.3841 35.7979 71.2079 35.8272 71.0344 35.8272C70.635 35.8272 70.2534 35.6711 69.9732 35.4022C69.9033 35.6724 69.9138 35.9654 70.0225 36.2461C70.2466 36.8259 70.8204 37.1849 71.4302 37.1849C71.6036 37.1849 71.7798 37.156 71.9514 37.0952L78.3107 34.8386C79.0885 34.5631 79.4856 33.7358 79.1971 32.9908Z" fill="#E43D91"/>
<path d="M74.1985 35.7472C74.1985 37.2116 72.9593 38.3987 71.4306 38.3987C69.902 38.3987 68.6627 37.2116 68.6627 35.7472C68.6627 34.2828 69.902 33.0957 71.4306 33.0957C72.9593 33.0957 74.1985 34.2828 74.1985 35.7472Z" fill="white"/>
<path d="M73.2368 35.7472C73.2368 36.703 72.428 37.4774 71.4306 37.4774C70.4328 37.4774 69.6245 36.7026 69.6245 35.7472C69.6245 34.7918 70.4333 34.017 71.4306 34.017C72.428 34.017 73.2368 34.7918 73.2368 35.7472Z" fill="#E6E7E8"/>
</svg>
