<svg width="109" height="101" viewBox="0 0 109 101" fill="none" xmlns="http://www.w3.org/2000/svg">
<path d="M54.5 98.2447C83.4237 98.2447 106.871 76.69 106.871 50.1009C106.871 23.5118 83.4237 1.95703 54.5 1.95703C25.5762 1.95703 2.12891 23.5118 2.12891 50.1009C2.12891 76.69 25.5762 98.2447 54.5 98.2447Z" fill="#DFF3FF"/>
<path d="M22.0595 76.1763H10.47C14.755 82.2782 20.4992 87.4323 27.25 91.221V80.9478C27.25 78.3126 24.9261 76.1763 22.0595 76.1763Z" fill="#BAEE83"/>
<path d="M87.23 12.5193H69.4713C62.7172 12.5193 57.2418 17.5527 57.2418 23.7615C57.2418 26.0677 55.2083 27.9373 52.6996 27.9373C48.2613 27.9373 44.6632 31.2449 44.6632 35.325C44.6632 40.2922 49.0434 44.3189 54.4468 44.3189H106.494C104.823 31.4862 97.6615 20.2064 87.23 12.5193Z" fill="#BAEE83"/>
<path d="M4.51562 35.6932H24.1005C27.4348 35.6932 30.1381 33.2083 30.1381 30.1431V29.9153C30.1381 26.8502 32.8411 24.3653 36.1754 24.3653C39.5097 24.3653 42.2128 21.8804 42.2128 18.8152V17.6011C42.2128 14.5359 39.5097 12.051 36.1754 12.051H22.4146C14.0759 18.0017 7.74475 26.2163 4.51562 35.6932Z" fill="#E2F8CC"/>
<path d="M59.2051 44.3186H35.151C29.2554 44.3186 24.4758 48.7122 24.4758 54.1321V57.2836C24.4758 62.2549 28.8599 66.2851 34.2677 66.2851C38.4161 66.2851 41.7791 69.3767 41.7791 73.1902V85.5489C41.7791 89.9846 47.725 92.0886 50.9605 88.7978C52.237 87.4995 54.0514 86.7588 55.9551 86.7588C59.6732 86.7588 62.6876 83.9879 62.6876 80.5697V71.6189C62.6876 69.2397 64.7856 67.3108 67.3739 67.3108H69.5369C72.125 67.3108 74.2232 65.3821 74.2232 63.0027V58.1243C74.2232 55.7451 72.1252 53.8162 69.5369 53.8162C66.9488 53.8162 64.8505 51.8876 64.8505 49.5082C64.8505 46.6422 62.3229 44.3186 59.2051 44.3186Z" fill="#E2F8CC"/>
<path d="M77.5262 98.2446C93.7329 98.2446 106.871 86.167 106.871 71.2684C106.871 56.3699 93.7329 44.2922 77.5262 44.2922C61.3195 44.2922 48.1814 56.3699 48.1814 71.2684C48.1814 86.167 61.3195 98.2446 77.5262 98.2446Z" fill="white"/>
<path d="M101.53 86.7883C104.894 82.3992 106.871 77.0466 106.871 71.2694C106.871 56.3712 93.7334 44.2939 77.5271 44.2939C61.3208 44.2939 48.1831 56.3714 48.1831 71.2694C48.1831 86.1673 61.3208 98.2448 77.5271 98.2448C84.0503 98.2448 90.0753 96.2869 94.9475 92.9773L106.871 98.2448L101.53 86.7883Z" fill="#A5DDFF"/>
<path d="M54.5 96.2876H54.4333C53.2578 96.2876 52.3044 97.164 52.3044 98.2447C52.3044 99.3254 53.2578 100.202 54.4333 100.202H54.5C55.6756 100.202 56.6289 99.3254 56.6289 98.2447C56.6289 97.164 55.6756 96.2876 54.5 96.2876Z" fill="black"/>
<path d="M93.3647 46.2758H104.568C104.682 47.5375 104.742 48.8128 104.742 50.1009C104.742 51.1816 105.695 52.058 106.871 52.058C108.047 52.058 109 51.1816 109 50.1009C109 36.7185 103.331 24.1371 93.0374 14.6743C82.7435 5.21147 69.0574 0 54.5 0C39.9425 0 26.2564 5.21147 15.9625 14.6743C5.66906 24.1371 0 36.7185 0 50.1009C0 59.7252 3.02177 69.1107 8.61291 77.1335C8.65187 77.1969 8.69488 77.2577 8.74086 77.3164C10.0259 79.1426 11.4435 80.8979 12.9904 82.5676C21.2725 91.5077 32.7302 97.5151 45.2524 99.4834C45.374 99.5023 45.4947 99.5117 45.6137 99.5117C46.632 99.5115 47.5323 98.8379 47.7098 97.8842C47.908 96.8188 47.1289 95.8074 45.9701 95.6252C39.9764 94.6833 34.391 92.7965 29.3787 90.1485V80.948C29.3787 77.2378 26.0951 74.2194 22.0591 74.2194H11.5983C6.92001 67.17 4.25781 58.8962 4.25781 50.1009C4.25781 45.7885 4.90606 41.6129 6.11422 37.6502H24.1007C28.6036 37.6502 32.267 34.2825 32.267 30.1431V29.9153C32.267 27.934 34.0203 26.3223 36.1754 26.3223C40.6783 26.3223 44.3417 22.9546 44.3417 18.8152V17.6011C44.3417 13.4617 40.6783 10.094 36.1754 10.094H29.4164C36.8026 6.16515 45.3704 3.91413 54.5 3.91413C63.9864 3.91413 72.8667 6.34442 80.4443 10.5621H69.4715C61.5545 10.5621 55.1133 16.4834 55.1133 23.7615C55.1133 24.9849 54.0306 25.9801 52.6998 25.9801C47.0946 25.9801 42.5345 30.1721 42.5345 35.3249C42.5345 41.3632 47.8785 46.2758 54.447 46.2758H61.6897C52.3457 51.2988 46.0544 60.6209 46.0544 71.2693C46.0544 76.9986 47.8755 82.3442 51.0133 86.8429C50.4148 86.8296 49.8141 87.0452 49.3812 87.4858C48.039 88.851 46.394 88.4113 45.9218 88.2447C45.4494 88.0776 43.9085 87.3893 43.9085 85.549V73.1906C43.9085 68.3038 39.5838 64.3284 34.2679 64.3284C30.0425 64.3284 26.6051 61.1683 26.6051 57.2839V54.1323C26.6051 49.8003 30.4391 46.2758 35.1514 46.2758H38.7461C39.9217 46.2758 40.875 45.3996 40.875 44.3187C40.875 43.2379 39.9217 42.3617 38.7461 42.3617H35.151C28.0909 42.3617 22.3469 47.6418 22.3469 54.1323V57.2839C22.3469 63.3266 27.6945 68.2425 34.2675 68.2425C37.2354 68.2425 39.6502 70.4622 39.6502 73.1906V85.549C39.6502 88.3864 41.5113 90.8783 44.3917 91.8976C45.2695 92.2082 46.1764 92.3589 47.0722 92.3589C49.1162 92.3587 51.101 91.5735 52.5397 90.1102C52.7562 89.89 52.9056 89.6366 52.994 89.3704C58.7676 95.9698 67.6192 100.202 77.5271 100.202C83.8748 100.202 89.9414 98.4903 95.1546 95.24L105.949 100.009C106.243 100.138 106.558 100.202 106.87 100.202C107.408 100.202 107.939 100.015 108.344 99.6579C108.984 99.0937 109.177 98.2234 108.828 97.4736L103.945 86.9992C107.256 82.313 109 76.8984 109 71.2693C109 60.6209 102.709 51.299 93.3647 46.2758ZM22.0593 78.1333C23.7475 78.1333 25.1211 79.3958 25.1211 80.9478V87.6245C21.0791 84.9541 17.5056 81.7514 14.5087 78.1333H22.0593ZM36.1756 14.0079C38.3307 14.0079 40.0841 15.6197 40.0841 17.6009V18.815C40.0841 20.7964 38.3307 22.408 36.1756 22.408C31.6728 22.408 28.0094 25.7757 28.0094 29.9151V30.1429C28.0094 32.1243 26.256 33.7359 24.1009 33.7359H7.51887C10.7463 25.9321 16.2103 19.1344 23.1891 14.0077H36.1756V14.0079V14.0079ZM54.4468 42.3617C50.226 42.3617 46.7921 39.2051 46.7921 35.3249C46.7921 32.3303 49.4421 29.8942 52.6996 29.8942C56.3781 29.8942 59.3709 27.1429 59.3709 23.7615C59.3709 18.6416 63.9019 14.4762 69.4713 14.4762H86.4429C92.3441 18.9558 97.1175 24.6479 100.308 31.1336H87.1525C85.9769 31.1336 85.0236 32.0098 85.0236 33.0907C85.0236 34.1716 85.9769 35.0477 87.1525 35.0477H102C102.886 37.4056 103.57 39.8496 104.033 42.3617H54.4468ZM99.5736 87.5591L102.679 94.2216L95.8697 91.2132C95.1589 90.8993 94.3169 90.9723 93.6827 91.4032C88.9783 94.5987 83.3918 96.2877 77.5271 96.2877C62.5206 96.2877 50.312 85.0645 50.312 71.2693C50.312 57.8366 61.8879 46.8443 76.3504 46.2758H78.7037C93.1662 46.8443 104.742 57.8366 104.742 71.2693C104.742 76.4575 103.03 81.4339 99.7899 85.661C99.3643 86.2164 99.2824 86.9348 99.5736 87.5591Z" fill="black"/>
<path d="M79.5955 34.4738C79.9915 34.1098 80.2193 33.6068 80.2193 33.0901C80.2193 32.5754 79.9917 32.0705 79.5955 31.7065C79.1993 31.3425 78.6503 31.1331 78.0904 31.1331C77.5284 31.1331 76.9812 31.3425 76.5855 31.7065C76.1874 32.0705 75.9615 32.5754 75.9615 33.0901C75.9615 33.6068 76.1874 34.1098 76.5855 34.4738C76.9812 34.8397 77.5286 35.0472 78.0904 35.0472C78.6501 35.0472 79.1996 34.8397 79.5955 34.4738Z" fill="black"/>
<path d="M69.7925 64.6153C69.7925 63.5346 68.8392 62.6582 67.6636 62.6582H60.6684C59.4929 62.6582 58.5395 63.5346 58.5395 64.6153C58.5395 65.696 59.4929 66.5723 60.6684 66.5723H62.0373V74.172C62.0373 74.8658 61.4231 75.4304 60.6684 75.4304C59.9137 75.4304 59.2996 74.8658 59.2996 74.172C59.2996 73.0913 58.3462 72.2149 57.1707 72.2149C55.9951 72.2149 55.0417 73.0913 55.0417 74.172C55.0417 77.024 57.5658 79.3445 60.6684 79.3445C63.7711 79.3445 66.2951 77.0242 66.2951 74.172V66.5723H67.6638C68.8392 66.5723 69.7925 65.6962 69.7925 64.6153Z" fill="black"/>
<path d="M77.8533 62.6582C72.8488 62.6582 68.7775 66.4009 68.7775 71.0014C68.7775 75.6019 72.8488 79.3445 77.8533 79.3445C82.8577 79.3445 86.929 75.6019 86.929 71.0014C86.929 66.4009 82.8577 62.6582 77.8533 62.6582ZM77.8533 75.4304C75.1966 75.4304 73.0353 73.4436 73.0353 71.0014C73.0353 68.5592 75.1966 66.5723 77.8533 66.5723C80.5099 66.5723 82.6712 68.5592 82.6712 71.0014C82.6712 73.4436 80.5099 75.4304 77.8533 75.4304Z" fill="black"/>
<path d="M98.7257 71.2693C99.5293 70.3602 100.012 69.2022 100.012 67.9423C100.012 65.0286 97.4338 62.6582 94.2643 62.6582H90.8883C89.7127 62.6582 88.7594 63.5346 88.7594 64.6153V71.2693V77.9233C88.7594 79.004 89.7127 79.8804 90.8883 79.8804H94.2643C97.4338 79.8804 100.012 77.51 100.012 74.5963C100.012 73.3363 99.5295 72.1784 98.7257 71.2693ZM93.0172 66.5723H94.2643C95.0859 66.5723 95.7546 67.1871 95.7546 67.9423C95.7546 68.6975 95.0859 69.3122 94.2643 69.3122H93.0172V66.5723ZM94.2643 75.9663H93.0172V73.2264H94.2643C95.0859 73.2264 95.7546 73.8411 95.7546 74.5963C95.7546 75.3515 95.0861 75.9663 94.2643 75.9663Z" fill="black"/>
</svg>
